<?xml version="1.0" standalone="no"?>
<!DOCTYPE svg PUBLIC "-//W3C//DTD SVG 20010904//EN"
 "http://www.w3.org/TR/2001/REC-SVG-20010904/DTD/svg10.dtd">
<svg version="1.0" xmlns="http://www.w3.org/2000/svg"
 width="3400.000000pt" height="3400.000000pt" viewBox="0 0 3400.000000 3400.000000"
 preserveAspectRatio="xMidYMid meet">
<metadata>
Created by potrace 1.14, written by Peter Selinger 2001-2017
</metadata>
<g transform="translate(0.000000,3400.000000) scale(0.100000,-0.100000)"
fill="#000000" stroke="none">
<path d="M4500 17000 l0 -15000 12500 0 12500 0 0 15000 0 15000 -12500 0
-12500 0 0 -15000z m7003 10660 c4 0 7 -3211 7 -7135 l0 -7135 2153 0 2152 0
0 -1185 0 -1185 -278 0 c-152 1 -282 -2 -287 -5 -6 -3 -10 -2 -10 4 0 6 -11 6
-29 1 -16 -4 -32 -6 -34 -3 -8 7 -235 5 -247 -2 -5 -3 -10 -2 -10 4 0 6 -11 6
-29 1 -16 -4 -32 -6 -34 -3 -8 7 -235 5 -247 -2 -5 -3 -10 -2 -10 4 0 6 -11 6
-29 1 -16 -4 -32 -6 -34 -3 -8 7 -235 5 -247 -2 -5 -3 -10 -2 -10 4 0 6 -11 6
-29 1 -16 -4 -32 -6 -34 -3 -8 7 -235 5 -247 -2 -5 -3 -10 -2 -10 4 0 6 -11 6
-29 1 -16 -4 -32 -6 -34 -3 -8 7 -235 5 -247 -2 -5 -3 -10 -2 -10 4 0 6 -11 6
-29 1 -16 -4 -32 -6 -34 -3 -8 7 -235 5 -247 -2 -5 -3 -10 -2 -10 4 0 6 -11 6
-29 1 -16 -4 -32 -6 -34 -3 -8 7 -235 5 -247 -2 -5 -3 -10 -2 -10 4 0 6 -11 7
-27 2 -16 -4 -35 -6 -43 -4 -8 2 -917 4 -2020 6 l-2005 2 0 8315 0 8315 70 5
c50 4 2455 4 2528 0z m11257 0 c0 -3 7 -43 15 -90 9 -47 18 -101 21 -120 3
-19 7 -42 8 -50 1 -8 6 -40 11 -70 4 -30 9 -64 12 -75 2 -11 6 -36 8 -55 3
-19 13 -86 24 -149 11 -62 20 -116 19 -120 0 -3 1 -8 2 -11 3 -9 9 -44 14 -80
4 -32 48 -305 62 -390 4 -19 8 -46 10 -60 7 -54 13 -96 18 -120 5 -22 55 -333
61 -370 11 -83 18 -128 21 -145 2 -10 6 -37 9 -60 5 -36 20 -119 30 -170 3
-11 7 -40 10 -65 3 -25 7 -56 9 -70 16 -104 66 -411 72 -440 2 -14 7 -43 10
-65 3 -22 7 -51 10 -65 2 -14 6 -43 9 -65 3 -22 7 -51 10 -65 13 -63 16 -77
20 -110 3 -19 7 -46 10 -60 3 -14 7 -43 10 -65 3 -22 7 -52 10 -67 6 -30 12
-70 21 -133 3 -22 14 -89 24 -150 11 -60 22 -128 25 -150 3 -22 8 -51 10 -65
3 -14 7 -43 10 -65 5 -40 12 -76 15 -85 1 -3 2 -9 1 -14 -1 -5 3 -32 8 -60 14
-71 40 -222 46 -274 3 -24 7 -53 10 -65 3 -12 7 -38 10 -57 8 -60 14 -100 29
-189 8 -47 18 -106 22 -131 3 -25 8 -56 10 -70 11 -63 14 -79 30 -195 2 -16 7
-41 9 -55 10 -50 14 -69 21 -117 3 -26 8 -57 10 -68 5 -26 13 -70 19 -115 7
-56 22 -148 39 -245 8 -49 18 -106 20 -125 3 -19 7 -46 10 -60 2 -14 7 -43 10
-65 3 -22 10 -67 16 -100 5 -33 16 -105 25 -160 17 -104 23 -143 31 -185 2
-14 6 -43 9 -65 3 -22 7 -51 10 -65 3 -14 8 -38 9 -55 2 -16 11 -70 20 -120 8
-49 18 -106 20 -125 3 -19 7 -46 10 -60 2 -14 7 -43 10 -65 4 -34 40 -253 60
-375 4 -19 9 -53 12 -75 3 -22 7 -51 10 -65 3 -14 7 -38 9 -55 7 -44 13 -83
40 -250 42 -261 85 -529 90 -560 2 -16 7 -41 10 -55 3 -14 7 -43 10 -65 2 -22
16 -110 30 -195 15 -85 28 -166 30 -180 2 -14 6 -41 9 -60 3 -19 19 -120 35
-225 16 -104 33 -206 37 -225 3 -19 8 -48 9 -65 2 -16 4 -30 5 -30 1 0 4 -13
6 -30 5 -47 13 -101 34 -220 10 -60 21 -128 24 -150 4 -22 8 -51 11 -65 2 -14
7 -43 10 -65 6 -46 7 -47 34 -215 11 -69 22 -142 25 -162 2 -21 7 -41 9 -45 3
-4 8 -37 12 -73 3 -36 8 -72 10 -80 2 -8 6 -28 9 -45 18 -107 36 -225 40 -255
2 -19 7 -42 9 -50 3 -8 8 -37 11 -65 3 -27 8 -59 10 -70 2 -11 7 -42 10 -70 4
-27 11 -68 16 -90 8 -40 13 -67 25 -155 3 -25 8 -52 10 -60 2 -8 7 -35 10 -60
5 -37 39 -253 61 -385 3 -16 7 -43 10 -60 10 -75 14 -98 54 -340 17 -104 32
-201 34 -215 8 -52 26 -166 31 -193 7 -37 23 -135 29 -177 3 -19 8 -46 10 -60
3 -14 7 -45 10 -70 3 -25 8 -56 11 -70 4 -14 7 -36 9 -50 2 -14 9 -56 15 -95
16 -94 19 -112 26 -165 3 -25 8 -53 11 -62 3 -9 7 -34 10 -55 7 -62 12 -96 18
-128 15 -88 43 -262 52 -325 2 -19 7 -46 9 -60 3 -14 10 -54 15 -90 6 -36 12
-74 14 -85 8 -51 28 -178 31 -202 2 -16 4 -29 6 -30 3 -5 5 -16 13 -77 4 -32
9 -68 11 -80 12 -67 47 -281 49 -300 2 -11 6 -37 9 -56 4 -19 9 -51 12 -70 2
-19 16 -105 30 -190 15 -85 28 -168 30 -185 2 -16 7 -43 10 -60 3 -16 8 -43
10 -60 11 -82 16 -114 45 -290 18 -104 34 -206 36 -225 5 -39 12 -75 14 -75 1
0 3 -16 5 -35 2 -19 12 -89 24 -154 11 -66 19 -122 19 -125 -1 -3 1 -19 5 -36
4 -16 9 -46 12 -65 2 -19 7 -51 9 -70 6 -35 7 -46 26 -155 5 -33 10 -66 10
-72 0 -10 -270 -13 -1315 -13 l-1315 0 -2 23 c-3 39 -4 51 -11 82 -4 17 -9 50
-12 75 -3 25 -7 57 -10 72 -5 28 -7 38 -19 133 -4 28 -11 73 -16 100 -5 28
-12 64 -14 80 -2 17 -8 53 -12 80 -4 28 -8 61 -9 75 -2 14 -6 42 -9 63 -3 20
-8 53 -11 72 -11 79 -17 113 -26 166 -5 31 -12 74 -14 95 -11 87 -16 120 -21
144 -3 14 -7 39 -9 55 -2 17 -6 45 -9 63 -3 18 -8 52 -11 75 -4 23 -13 83 -20
132 -17 105 -25 158 -29 200 -2 17 -6 44 -9 60 -3 17 -9 50 -12 75 -3 25 -15
99 -25 164 -10 66 -18 122 -18 125 1 3 -2 17 -5 31 -4 14 -9 45 -12 70 -3 25
-8 56 -10 70 -2 14 -6 43 -8 65 -3 22 -17 114 -30 205 -14 91 -28 181 -31 200
-2 19 -5 35 -6 35 -1 0 -3 20 -5 45 -8 85 -10 88 -65 92 -27 1 -50 0 -50 -4 0
-4 -6 -5 -12 -3 -23 9 -248 10 -248 2 0 -5 -5 -5 -10 -2 -6 4 -41 6 -78 5 -86
-2 -80 -2 -129 2 -24 2 -43 0 -43 -4 0 -4 -6 -5 -12 -3 -26 9 -118 11 -118 2
0 -4 -4 -6 -9 -3 -13 8 -159 11 -167 3 -3 -3 -11 -4 -18 -1 -20 8 -126 10
-126 2 0 -3 -8 -4 -17 -2 -28 7 -233 10 -233 3 0 -3 -22 -3 -50 1 -27 3 -54 4
-60 0 -6 -4 -33 -3 -60 0 -28 4 -50 3 -50 -1 0 -5 -6 -6 -12 -4 -19 7 -248 11
-248 4 0 -3 -22 -3 -50 1 -27 3 -54 4 -60 0 -6 -4 -33 -3 -60 0 -28 4 -50 3
-50 -1 0 -5 -6 -6 -12 -4 -23 9 -248 10 -248 2 0 -5 -5 -5 -10 -2 -6 4 -41 6
-78 5 -86 -2 -80 -2 -129 2 -24 2 -43 0 -43 -4 0 -4 -6 -5 -12 -3 -26 9 -118
11 -118 2 0 -4 -4 -6 -9 -3 -13 8 -159 11 -167 3 -3 -3 -11 -4 -18 -1 -18 7
-126 10 -126 3 0 -3 -19 -3 -41 0 -23 3 -74 5 -114 3 l-72 -3 -17 -107 c-9
-59 -19 -125 -22 -147 -3 -22 -7 -51 -10 -65 -2 -14 -7 -45 -10 -70 -3 -25
-16 -115 -29 -200 -13 -85 -27 -175 -30 -200 -3 -25 -8 -58 -12 -75 -3 -16 -7
-41 -8 -55 -2 -14 -6 -45 -10 -70 -4 -25 -8 -56 -10 -70 -4 -28 -34 -221 -41
-260 -2 -14 -6 -45 -10 -70 -3 -25 -8 -56 -10 -70 -3 -14 -7 -45 -9 -70 -3
-25 -9 -67 -14 -95 -6 -27 -17 -97 -26 -155 -8 -58 -18 -121 -21 -140 -5 -34
-7 -51 -18 -135 -3 -22 -8 -56 -12 -75 -4 -19 -7 -38 -6 -42 1 -3 -5 -41 -12
-85 -8 -43 -17 -103 -21 -133 -3 -30 -8 -62 -10 -70 -3 -8 -7 -33 -9 -55 -7
-56 -50 -339 -60 -400 -2 -11 -7 -39 -11 -62 l-7 -43 -1194 0 -1194 0 6 43 c3
23 7 53 9 67 2 14 6 43 10 65 3 22 19 119 35 215 16 96 31 192 34 213 4 20 8
54 11 75 3 20 15 89 26 152 11 63 22 131 24 150 2 19 7 49 10 65 6 30 9 46 20
138 3 27 10 57 15 67 5 9 7 20 4 23 -3 2 2 47 11 98 9 52 18 108 21 124 2 17
6 41 9 55 3 14 7 41 10 60 7 56 13 89 29 185 16 91 26 153 31 190 3 28 17 116
21 140 2 10 6 37 10 60 6 42 11 67 14 75 1 3 2 9 1 13 -1 5 7 59 18 120 11 62
23 132 26 157 3 25 9 59 11 75 3 17 7 39 8 50 2 11 6 40 10 65 4 25 10 59 12
75 2 17 9 53 14 80 5 28 12 68 15 90 7 52 14 93 21 130 3 17 7 44 9 60 1 17
15 102 30 190 14 88 28 174 31 190 2 17 6 41 9 55 2 14 7 45 10 70 4 25 17
108 30 184 14 76 22 142 20 147 -3 4 -1 10 4 14 5 3 10 13 10 23 -1 9 2 33 4
52 3 19 8 57 12 83 3 27 10 59 15 72 5 13 7 25 5 27 -2 2 4 52 15 112 10 59
22 131 26 159 4 29 8 61 10 72 1 11 3 20 4 20 1 0 3 11 5 25 2 24 43 284 51
325 2 11 6 31 8 45 3 14 8 45 11 70 3 25 7 56 10 70 3 23 51 311 60 370 3 14
7 43 10 65 4 22 17 107 31 189 13 82 26 166 29 187 3 21 9 56 14 78 5 22 6 42
3 45 -2 3 0 12 6 19 7 8 10 16 7 19 -3 2 8 83 25 178 16 96 27 176 25 178 -2
3 0 12 5 21 5 9 12 43 15 76 4 32 8 63 10 69 1 6 5 34 9 61 4 28 10 61 12 75
2 14 11 68 20 120 20 116 25 148 29 180 2 14 4 27 5 30 1 3 2 8 2 11 -1 4 12
87 29 185 16 99 32 194 35 213 2 19 6 46 9 60 2 14 14 87 25 161 12 74 23 144
25 155 3 11 7 36 9 55 2 19 7 46 10 60 6 27 14 81 22 150 3 24 9 52 14 61 5 9
7 19 4 21 -2 3 4 57 15 119 11 63 23 137 27 164 3 28 8 59 10 70 3 11 7 43 10
70 3 28 8 53 11 58 2 4 6 24 8 45 2 20 7 53 10 72 4 19 8 46 10 60 2 14 9 54
16 90 6 36 13 79 15 95 2 17 5 41 7 55 2 14 10 61 17 105 7 44 13 87 15 95 1
8 6 35 10 60 4 25 9 52 10 60 5 29 16 95 20 128 9 61 14 91 24 149 5 32 13 76
16 98 3 22 7 47 10 55 2 8 6 38 10 65 3 28 8 59 10 70 3 11 7 37 10 58 11 76
17 115 40 252 30 178 34 201 40 250 3 22 7 47 9 55 1 8 6 38 10 65 4 28 10 61
12 75 43 263 53 325 60 380 4 29 24 150 50 300 2 14 6 40 9 58 3 17 8 49 11
70 7 45 10 64 18 122 4 25 13 81 21 125 8 44 17 100 20 125 3 25 8 52 10 60 2
8 7 35 10 60 3 25 8 57 11 73 2 15 6 39 8 55 3 15 17 99 31 187 29 175 31 189
40 255 3 25 15 95 25 155 10 61 21 128 25 150 3 23 8 52 10 65 3 14 8 41 10
60 7 56 40 258 70 440 2 14 7 43 10 65 3 22 8 51 10 65 3 14 7 39 9 55 3 17
12 71 20 120 8 50 17 106 20 125 3 19 8 46 10 60 5 28 17 114 22 145 1 11 14
88 28 170 13 83 28 170 31 195 3 25 8 52 10 60 2 8 6 37 10 64 3 27 14 99 25
160 10 61 21 129 24 151 4 22 8 51 11 65 2 14 6 41 9 60 8 58 49 313 66 410 5
30 12 75 15 100 8 56 8 57 34 215 12 72 24 141 26 155 2 14 7 41 10 60 4 19 8
49 9 65 2 17 16 102 30 190 15 88 29 174 32 190 5 30 13 81 20 119 2 11 8 22
13 25 11 7 3811 8 3811 1z m-2358 -18345 c-26 -32 -145 -164 -199 -222 -17
-19 -45 -50 -61 -69 l-30 -35 -91 3 -91 3 61 90 c34 50 87 128 119 175 l57 85
130 0 131 0 -26 -30z m-6257 -469 c69 -7 150 -33 199 -64 50 -31 146 -129 146
-148 0 -8 4 -14 9 -14 5 0 11 -8 14 -17 3 -10 17 -47 30 -83 30 -79 38 -125
42 -252 l4 -98 -129 0 -130 0 0 85 c0 174 -45 276 -145 327 -43 23 -209 36
-220 18 -3 -5 -11 -7 -19 -4 -21 8 -109 -58 -133 -101 -71 -124 -71 -350 -1
-471 59 -103 180 -229 343 -358 91 -72 238 -211 275 -261 86 -115 147 -255
157 -360 31 -347 -89 -605 -321 -684 -157 -55 -364 -47 -511 19 -111 50 -227
212 -250 349 -3 19 -8 38 -10 41 -8 13 -18 191 -16 280 l1 35 103 -2 c56 0
112 -2 123 -2 21 -1 22 -7 26 -138 6 -158 26 -229 84 -293 53 -58 116 -80 227
-77 77 2 99 7 131 26 77 48 115 103 136 196 16 71 14 203 -4 269 -34 122 -159
272 -371 442 -264 213 -392 386 -429 580 -14 70 -11 349 4 349 1 0 3 11 6 25
6 36 54 150 78 185 44 65 101 115 171 151 41 20 87 39 102 41 163 19 174 20
278 9z m4193 -11 c185 -43 305 -172 361 -390 21 -83 33 -280 19 -323 -5 -13
-5 -21 0 -19 6 4 7 -37 3 -85 -1 -5 -58 -8 -128 -8 l-128 0 -1 153 c0 83 -3
173 -6 199 -14 106 -85 202 -172 231 -32 11 -75 15 -129 14 -68 -2 -91 -7
-132 -30 -78 -44 -127 -125 -142 -241 -9 -64 -9 -1446 0 -1501 17 -114 73
-201 154 -241 58 -28 203 -30 263 -3 134 60 166 149 165 464 l0 195 128 0 c94
0 127 -3 128 -12 0 -7 0 -58 0 -113 -1 -55 -1 -107 -1 -115 0 -8 0 -44 -1 -80
0 -36 0 -74 0 -85 1 -62 -65 -266 -99 -308 -61 -76 -110 -119 -162 -148 -35
-18 -67 -34 -73 -36 -192 -45 -365 -35 -501 29 -43 20 -154 113 -154 129 0 4
-11 24 -24 44 -14 20 -32 57 -41 83 -10 26 -20 54 -23 62 -27 76 -32 207 -32
890 0 624 4 773 23 850 25 103 63 182 123 256 65 80 192 141 314 151 36 3 66
6 67 7 7 6 149 -8 201 -19z m1872 8 c30 -3 57 -7 60 -8 3 -1 19 -5 35 -10 166
-45 305 -223 341 -435 4 -25 8 -389 8 -810 0 -705 -2 -771 -18 -835 -44 -170
-142 -306 -262 -361 -69 -33 -59 -30 -154 -48 -71 -13 -198 -14 -271 -1 -54
10 -151 45 -184 67 -44 31 -128 119 -145 153 -8 17 -21 41 -29 54 -9 13 -17
29 -18 35 -2 6 -13 45 -25 86 -21 74 -22 83 -22 825 -1 729 1 816 24 900 6 22
12 45 13 50 1 6 5 15 8 20 4 6 12 26 18 46 6 20 21 45 31 54 11 10 20 23 20
30 0 7 25 36 55 64 118 112 289 153 515 124z m-6954 -130 c0 -62 -2 -116 -5
-120 -3 -5 -170 -8 -371 -8 l-365 0 -3 -427 c-1 -236 1 -428 5 -429 5 -1 141
-2 303 -2 l295 -2 0 -119 0 -120 -300 0 -300 -1 -5 -433 c-3 -239 -2 -439 2
-445 5 -9 108 -12 370 -14 200 0 365 -2 368 -2 3 -1 6 -55 6 -121 l0 -120
-508 0 -507 0 0 163 c-1 89 -1 169 -2 177 0 8 0 62 0 120 1 58 1 112 0 120 0
8 0 62 0 120 1 58 1 112 0 120 0 8 0 62 0 120 1 58 1 114 1 125 -1 11 0 334 1
717 l1 697 506 -2 507 -2 1 -112z m2678 -6 c1 -97 -2 -117 -14 -118 -8 0 -112
-1 -230 -2 l-215 -2 0 -1118 0 -1117 -136 0 -137 0 0 1098 c0 603 -1 1106 -1
1118 -1 21 -4 21 -226 20 l-224 -1 -3 50 c-2 28 -2 82 0 122 l4 72 591 -2 591
-2 0 -118z m1000 105 c8 -24 46 -221 51 -257 2 -16 15 -86 29 -155 14 -69 27
-136 30 -150 5 -31 25 -138 30 -166 2 -11 16 -79 30 -150 26 -132 32 -166 41
-219 3 -16 19 -97 35 -180 16 -82 32 -163 35 -180 2 -16 7 -41 10 -55 3 -14 8
-41 11 -60 3 -19 16 -87 29 -150 13 -63 26 -128 29 -145 10 -60 25 -142 46
-250 12 -60 23 -121 25 -135 2 -14 5 -25 6 -25 1 0 3 -9 4 -20 2 -11 9 -51 17
-88 9 -39 11 -70 6 -73 -18 -12 -252 -4 -259 8 -4 7 -12 39 -18 72 -6 34 -13
70 -15 81 -2 11 -16 88 -32 170 -15 83 -31 154 -35 158 -9 11 -619 11 -630 0
-6 -7 -28 -110 -45 -213 -7 -47 -43 -235 -49 -257 -5 -22 -9 -23 -131 -23
-115 0 -125 2 -120 18 5 18 61 306 70 357 6 36 9 54 41 215 14 69 28 143 30
164 3 21 7 42 10 46 3 4 7 25 10 46 5 33 28 156 50 264 3 14 8 41 11 60 3 19
7 43 10 53 3 10 7 30 9 45 2 15 14 77 26 137 12 61 23 119 25 130 1 11 5 30 8
41 2 12 7 37 10 55 3 19 8 45 11 59 15 76 25 128 29 153 3 15 7 35 10 45 3 9
7 34 10 54 2 21 7 41 9 45 3 4 8 28 11 53 3 25 8 54 10 65 2 11 18 92 36 180
30 149 37 187 39 192 1 1 89 2 196 2 173 0 195 -2 199 -17z m2316 -1222 l0
-1240 -134 0 -133 0 0 1233 c0 677 1 1235 4 1239 2 4 62 7 133 7 l130 1 0
-1240z m2070 1080 c28 -88 51 -162 51 -165 -1 -3 8 -29 18 -57 11 -29 52 -154
91 -278 84 -265 121 -379 166 -515 18 -55 35 -109 36 -120 2 -11 7 -26 11 -32
5 -7 10 -21 12 -30 1 -10 16 -56 31 -103 15 -47 29 -87 29 -90 7 -28 28 -97
33 -105 4 -5 7 -15 8 -22 1 -7 10 -36 21 -65 18 -52 18 -42 21 844 l2 897 118
-2 117 -2 1 -1237 1 -1238 -143 0 c-103 0 -144 3 -144 12 0 6 -16 63 -37 127
-20 64 -34 116 -32 117 2 0 -2 8 -10 17 -7 10 -11 17 -8 17 4 0 -6 37 -22 83
-45 129 -121 373 -121 386 0 6 -4 19 -10 29 -5 9 -22 60 -38 112 -55 177 -123
395 -159 503 -19 59 -36 113 -37 120 -2 12 -72 228 -83 257 -3 8 -8 24 -10 35
-2 11 -12 44 -23 75 -10 30 -21 68 -25 84 -3 15 -9 25 -13 21 -4 -4 -8 -444
-9 -978 -1 -535 -2 -982 -2 -994 -1 -23 -4 -23 -119 -23 l-117 0 1 1233 c1
677 2 1235 3 1239 0 4 77 7 170 7 l170 0 51 -159z"/>
<path d="M20701 24623 c-6 -49 -13 -102 -16 -120 -2 -18 -6 -40 -9 -50 -3 -10
-7 -38 -10 -63 -3 -25 -8 -56 -10 -70 -11 -62 -18 -106 -18 -120 0 -8 -4 -36
-9 -62 -5 -26 -11 -69 -14 -95 -4 -26 -8 -55 -10 -63 -3 -8 -7 -37 -10 -65 -3
-27 -8 -63 -11 -80 -11 -70 -22 -142 -29 -197 -2 -15 -8 -53 -14 -85 -6 -32
-13 -78 -16 -103 -3 -25 -8 -58 -11 -75 -7 -42 -13 -82 -20 -144 -3 -30 -8
-64 -10 -75 -5 -24 -33 -203 -40 -255 -2 -19 -7 -48 -10 -65 -3 -17 -8 -42 -9
-56 -2 -14 -7 -45 -10 -70 -4 -25 -7 -53 -7 -62 1 -10 -4 -20 -9 -23 -5 -4 -7
-10 -4 -15 3 -5 -6 -78 -19 -162 -24 -149 -34 -221 -42 -283 -2 -16 -7 -46
-10 -65 -4 -19 -7 -38 -6 -42 1 -3 -5 -42 -13 -87 -8 -44 -19 -116 -25 -159
-6 -43 -13 -89 -15 -103 -3 -13 -8 -49 -11 -79 -3 -30 -7 -62 -9 -70 -2 -8 -6
-28 -9 -45 -8 -53 -18 -120 -21 -135 -1 -8 -6 -42 -11 -75 -4 -33 -8 -62 -9
-65 -1 -3 -5 -32 -9 -65 -5 -33 -10 -69 -12 -80 -2 -10 -6 -37 -9 -60 -3 -22
-15 -94 -25 -160 -10 -66 -22 -140 -25 -165 -4 -25 -9 -61 -12 -80 -3 -19 -7
-44 -9 -55 -1 -11 -3 -22 -4 -25 -1 -3 -2 -8 -1 -13 1 -4 -8 -67 -20 -140 -24
-150 -29 -190 -34 -232 -1 -16 -4 -30 -5 -30 -2 0 -4 -11 -5 -25 -6 -52 -17
-129 -40 -275 -13 -82 -22 -151 -20 -153 2 -3 0 -12 -4 -21 -5 -9 -12 -43 -15
-76 -10 -82 -16 -126 -21 -152 -3 -12 -7 -41 -10 -65 -3 -24 -14 -98 -26 -165
-11 -67 -22 -139 -24 -160 -3 -21 -8 -56 -11 -78 -3 -22 -5 -48 -5 -57 0 -10
-5 -20 -10 -23 -5 -4 -7 -10 -4 -15 3 -5 -4 -67 -15 -137 -25 -158 -33 -209
-46 -308 -3 -22 -16 -109 -30 -193 -13 -85 -26 -173 -29 -195 -3 -23 -7 -51
-9 -63 -2 -12 -7 -45 -11 -75 -10 -78 -11 -84 -29 -194 -9 -55 -18 -116 -20
-135 -3 -20 -7 -47 -10 -60 -7 -32 -17 -95 -21 -140 -2 -19 -7 -51 -10 -70 -4
-19 -9 -53 -11 -75 -2 -22 -6 -51 -9 -65 -3 -14 -10 -56 -15 -95 -6 -38 -13
-88 -16 -110 -4 -22 -8 -51 -9 -65 -2 -14 -4 -25 -5 -25 -1 0 -3 -11 -4 -25
-4 -35 -14 -106 -36 -245 -10 -66 -22 -140 -25 -165 -5 -39 -13 -92 -18 -125
-1 -7 426 -11 1261 -13 l1262 -2 -4 52 c-3 29 -7 62 -9 73 -3 11 -8 45 -11 76
-4 31 -9 67 -11 80 -7 31 -33 203 -40 254 -3 22 -8 58 -11 80 -4 22 -8 51 -9
65 -2 14 -4 25 -5 25 -1 0 -3 14 -5 30 -2 17 -15 105 -30 198 -14 92 -23 172
-20 177 3 6 2 10 -2 10 -5 0 -10 12 -11 28 -1 15 -5 41 -7 57 -3 17 -7 44 -9
60 -8 61 -28 193 -42 274 -8 45 -12 87 -9 91 3 5 1 11 -5 15 -6 3 -10 18 -9
33 0 15 -2 41 -5 57 -6 38 -55 361 -60 400 -2 17 -7 46 -10 65 -4 19 -9 52
-11 73 -11 86 -15 113 -20 137 -2 14 -7 39 -9 55 -6 43 -18 117 -21 135 -2 8
-6 38 -9 65 -4 28 -10 66 -13 85 -5 36 -6 41 -18 125 -3 28 -17 118 -30 200
-13 83 -27 172 -31 200 -3 27 -8 61 -10 75 -3 14 -7 39 -9 55 -2 17 -6 45 -9
63 -22 141 -46 304 -51 337 -6 40 -9 62 -19 140 -3 22 -17 112 -31 200 -14 88
-28 176 -30 195 -5 37 -12 86 -19 135 -11 65 -65 431 -71 470 -3 21 -4 28 -40
265 -29 186 -35 224 -40 270 -2 19 -7 51 -10 70 -14 87 -45 289 -51 330 -3 25
-7 54 -9 65 -2 11 -6 40 -9 65 -11 75 -18 124 -23 145 -2 11 -6 36 -9 55 -2
19 -11 78 -19 130 -8 52 -16 115 -19 140 -3 25 -8 56 -10 69 -3 13 -8 49 -12
80 -3 31 -8 58 -9 61 -2 3 -11 57 -20 120 -9 63 -18 126 -21 140 -2 14 -6 45
-10 70 -3 25 -7 56 -10 70 -2 14 -13 88 -24 164 -11 77 -23 149 -26 160 -3 12
-7 44 -9 71 -2 28 -5 50 -6 50 -1 0 -3 9 -5 20 -1 11 -5 36 -8 55 -3 19 -8 55
-12 80 -3 25 -16 112 -30 194 -13 83 -22 152 -19 154 2 2 0 15 -5 28 -5 13
-12 49 -15 81 -3 32 -7 68 -9 80 -3 12 -8 43 -12 70 -5 26 -9 51 -10 56 -1 4
-2 21 -3 37 -2 59 -18 28 -30 -57z"/>
<path d="M19975 8592 c-55 -18 -114 -72 -143 -129 -43 -85 -44 -111 -43 -851
1 -389 3 -727 4 -752 5 -65 23 -119 56 -171 55 -88 131 -122 261 -118 137 4
222 75 262 219 15 55 20 1468 5 1564 -18 116 -80 205 -168 237 -60 22 -172 22
-234 1z"/>
<path d="M16700 8448 c-12 -69 -14 -83 -24 -127 -2 -10 -7 -34 -10 -52 -10
-62 -16 -93 -36 -190 -11 -53 -22 -113 -26 -134 -3 -21 -8 -47 -10 -59 -13
-56 -24 -117 -30 -156 -2 -19 -11 -64 -19 -100 -8 -36 -17 -78 -19 -95 -2 -16
-6 -37 -9 -45 -3 -8 -8 -33 -11 -55 -6 -44 -7 -48 -41 -220 -13 -65 -22 -122
-19 -126 2 -3 127 -6 279 -6 l275 0 -5 32 c-2 18 -29 162 -60 321 -31 159 -59
298 -61 309 -2 11 -8 43 -14 70 -6 28 -12 64 -15 80 -2 17 -16 86 -30 155 -14
69 -28 140 -31 159 -7 39 -12 66 -19 101 -3 14 -7 34 -9 45 -2 11 -10 49 -16
85 -7 36 -16 69 -20 73 -4 4 -12 -25 -20 -65z"/>
</g>
</svg>
